<svg xmlns="http://www.w3.org/2000/svg" width="22" height="22" viewBox="0 0 22 22">
  <defs>
    <style>
      .cls-1 {
        fill: #9ac531;
        fill-rule: evenodd;
      }
    </style>
  </defs>
  <path id="Icon" class="cls-1" d="M132.96,1192.17c0.012,2.02.04,6.73,0.04,7.87,0,1.47.046,2.94-1.467,2.94h-9.317c-0.078,0-.15.02-0.227,0.02s-0.15-.02-0.228-0.02h-0.54l0.067-.05a10.975,10.975,0,1,1,11.616-11.66l0.05-.04s0,0.23,0,.58c0,0.07.019,0.13,0.019,0.19S132.961,1192.11,132.96,1192.17Zm-10.972-8.27a8.045,8.045,0,1,0,8.035,8.05A8.046,8.046,0,0,0,121.988,1183.9Z" transform="translate(-111 -1181)"/>
</svg>
