<svg xmlns="http://www.w3.org/2000/svg" width="20" height="20" viewBox="0 0 20 20">
  <defs>
    <style>
      .cls-1 {
        fill: #f9993c;
        fill-rule: evenodd;
      }
    </style>
  </defs>
  <path id="Icon" class="cls-1" d="M127.189,1526a14.966,14.966,0,0,0-16.2-16.21v-3.68A17.926,17.926,0,0,1,130.9,1526h-3.711Zm-15.244-.89a3.152,3.152,0,1,1,4.443-.01,3.117,3.117,0,0,1-2.009.9H113.94A3.118,3.118,0,0,1,111.945,1525.11Zm6.434-5.24a9.067,9.067,0,0,0-7.388-2.58v-3.71A12.024,12.024,0,0,1,124.8,1526h-3.79A9.061,9.061,0,0,0,118.379,1519.87Z" transform="translate(-111 -1506)"/>
</svg>
