<svg xmlns="http://www.w3.org/2000/svg" width="26" height="21" viewBox="0 0 26 21">
  <defs>
    <style>
      .cls-1 {
        fill: #00aced;
        fill-rule: evenodd;
      }
    </style>
  </defs>
  <path id="Icon" class="cls-1" d="M710.805,1511.49s-7.694-.52-11.1-5.63c0,0-2.349,4.23,1.527,7.15a3.275,3.275,0,0,1-2.232-.64,5.3,5.3,0,0,0,4.141,5.28,3.706,3.706,0,0,1-2.261.14s0.529,3.24,4.846,3.65a10.231,10.231,0,0,1-7.724,2.22,15.539,15.539,0,0,0,18.267-1.39s5.042-3.84,5.042-11.96a36.4,36.4,0,0,0,2.692-2.72c0.049-.24-2.1.78-2.937,0.73,0,0,2.056-1.6,2.2-2.92,0,0-3.034,1.46-3.426,1.17a5.526,5.526,0,0,0-6.069-1.17S710.071,1506.82,710.805,1511.49Z" transform="translate(-698 -1505)"/>
</svg>
